<svg xmlns="http://www.w3.org/2000/svg" viewBox="0 0 548.63 107.58"><defs><style>.cls-1{fill:#fbbc05;}.cls-2{fill:#fff;}</style></defs><title>brandName</title><g id="Layer_2" data-name="Layer 2"><g id="Layer_1-2" data-name="Layer 1"><path class="cls-1" d="M96.81,83.35,67.17,0H38.75L0,106.43H26l7.5-23.68H71.33l7.57,23.68H92.65a14.49,14.49,0,0,1,4.16-23.08Zm-58.21-19L50.18,28.27A40.63,40.63,0,0,0,52,19h.6a46.21,46.21,0,0,0,1.78,9.57L65.84,64.34Z"/><path class="cls-1" d="M251.58,106.43H227.91V42.75q0-10.32.89-22.79h-.59a112.21,112.21,0,0,1-3.34,14.1l-24.94,72.36H180.33L155,34.81q-1-2.89-3.34-14.84h-.67q1,15.74,1,27.61v58.86h-21.6V0h35.11l21.75,63.09a88.9,88.9,0,0,1,3.79,15.21h.45a153.25,153.25,0,0,1,4.23-15.36L217.37,0h34.21Z"/><path class="cls-2" d="M344.16,106.43H280.78V0h24V87h39.41Z"/><path class="cls-2" d="M455.41,106.43H429.29l-7.57-23.68H383.87l-7.5,23.68h-26L389.14,0h28.43ZM416.23,64.35,404.8,28.57A46.53,46.53,0,0,1,403,19h-.59a40.64,40.64,0,0,1-1.86,9.28L389,64.35Z"/><path class="cls-2" d="M468.7,106.43V0h38.74q17.81,0,27.39,6.53t9.57,18.41A21.79,21.79,0,0,1,538.58,40a30.61,30.61,0,0,1-14.88,9v.3q11.36,1.41,18.15,8.39a23.46,23.46,0,0,1,6.79,17q0,14.62-10.46,23.19t-28.57,8.57Zm24-88.77V42.9h10.54q7.42,0,11.69-3.6a12.27,12.27,0,0,0,4.27-9.91q0-11.73-17.52-11.73Zm0,43V88.77h13q8.31,0,13-3.86a12.89,12.89,0,0,0,4.71-10.54,12,12,0,0,0-4.64-10q-4.64-3.64-13-3.64Z"/><path class="cls-2" d="M122.12,106.9c-1.19-1.19-2.31-2.38-3.94-4.13a17.27,17.27,0,0,1-12.32,4.82c-8.19,0-12.94-5.5-12.94-11.82,0-5.75,3.44-9.69,8.25-12.32v-.19a14.48,14.48,0,0,1-3.5-8.82,10.22,10.22,0,0,1,10.69-10.38c5.25,0,9.32,3.5,9.32,8.94,0,4.44-2.56,7.94-9.25,11.26v.19C112,88.57,116,93.2,118.68,96.2c1.94-2.94,3.25-7,4.06-12.32h5c-1.13,6.63-2.94,11.88-6.07,15.57,2.25,2.38,4.44,4.75,6.94,7.44Zm-6.63-7.25c-2.5-2.75-7.19-7.88-11.88-13.26-2.25,1.44-5.44,4.13-5.44,8.57a8.31,8.31,0,0,0,8.63,8.5A11.78,11.78,0,0,0,115.49,99.64Zm-12.82-25.7c0,3,1.38,5.32,3.19,7.57,4.25-2.44,7-4.69,7-8.25,0-2.56-1.44-5.44-4.88-5.44S102.67,70.69,102.67,73.94Z"/></g></g></svg>