<svg xmlns="http://www.w3.org/2000/svg" viewBox="0 0 500 457.19"><defs><style>.cls-1{isolation:isolate;}.cls-18,.cls-2{fill:#fff;}.cls-3{fill:#82939a;}.cls-4{fill:#42414b;}.cls-5{fill:#d03f3e;}.cls-6{fill:#d85144;}.cls-7{fill:#d2d9dc;}.cls-8{fill:#fdd0a2;}.cls-9{fill:#f8ab94;}.cls-10{fill:#5e351d;}.cls-11{fill:#48250d;}.cls-12{fill:#875e44;}.cls-13{fill:#acd3db;}.cls-14{fill:#d3dee4;}.cls-15{fill:#cce4e9;}.cls-16{fill:#a7dad0;}.cls-17{fill:#f2725c;}.cls-18{opacity:0.6;mix-blend-mode:overlay;}</style></defs><title>firstPicture</title><g class="cls-1"><g id="Layer_2" data-name="Layer 2"><g id="Layer_1-2" data-name="Layer 1"><ellipse class="cls-2" cx="250" cy="431.69" rx="250" ry="25.5"/><path class="cls-3" d="M236.73,366.62l4.5-11.28,4.27,11.3c40.48.4,68.22,7,68.22,7L299,334.29H183.39L170.63,373.6A296.2,296.2,0,0,1,236.73,366.62Z"/><path class="cls-4" d="M264,418c16.79-30.78,16.14-93.15,16.14-93.15l-19.69,1.79c13.7,29.38-3.45,74.22-9.17,87.55h0s-9.59,12.62,0,13.6c0,0,32.12,13.77,38.12.82C294.82,416.83,268.73,417.74,264,418Z"/><path class="cls-4" d="M224.06,418c-16.79-30.78-16.14-93.15-16.14-93.15l19.69,1.79c-13.7,29.38,3.45,74.22,9.17,87.55h0s9.59,12.62,0,13.6c0,0-32.12,13.77-38.12.82C193.2,416.83,219.28,417.74,224.06,418Z"/><path class="cls-5" d="M283.19,187.47c-5.74-8.92-12.39-16.63-20.09-22.48-16.76-12.74-39.39.08-39.39.08s-20.07,7.41-33.82,50.87C223.71,219.41,260.07,213.28,283.19,187.47Z"/><path class="cls-6" d="M294.09,208.1a147.88,147.88,0,0,0-10.9-20.63c-23.11,25.81-59.47,31.94-93.3,28.46-7.47,23.62-13.07,57.87-12.57,107.38,0,0,8.55,8.93,26.41,18.64s44.59,10.42,81.06,2c10.7-2.49,15.61-6,28-11.62C306,277.66,309.7,243.75,294.09,208.1Z"/><path class="cls-2" d="M223.45,176s-32.89,97.26-22.14,200.49c0,0-30.81,4-44.22-8,0,0-4.87-128.84,50.18-192.44Z"/><path class="cls-2" d="M260.89,176S293.78,273.28,283,376.5c0,0,30.81,4,44.22-8,0,0,4.87-128.84-50.18-192.44Z"/><path class="cls-7" d="M223.45,178.1a33.35,33.35,0,0,0-22.14,26.81,30.12,30.12,0,0,0,6,22.79,52.21,52.21,0,0,0-11.1,26.81c-2.21,18.35,4.67,38.94,4.67,38.94Z"/><path class="cls-7" d="M260.89,178.1A33.34,33.34,0,0,1,283,204.91a30.13,30.13,0,0,1-6,22.79,52.22,52.22,0,0,1,11.1,26.81c2.21,18.35-4.67,38.94-4.67,38.94Z"/><path class="cls-8" d="M335.87,113.61S350.76,58.38,299,34.27s-152.21-13.1-139,79.34c0,0-18.76-16.08-26.8,0s19.65,56.27,33,26.8c0,0,8,44.66,80.39,46.45s84-47.33,84-47.33,3.82,17.41,20.55,7.14C365.38,137.87,368.92,88.6,335.87,113.61Z"/><path class="cls-2" d="M207.27,150.89s52.7,9.83,81.28-2.68c0,0-8.77,26.89-38.88,27.77S207.27,150.89,207.27,150.89Z"/><circle class="cls-4" cx="291.86" cy="119.98" r="9.08"/><circle class="cls-4" cx="201.31" cy="119.98" r="9.08"/><path class="cls-9" d="M305.12,150c-4.68.45-8.45-9,6.26-14.71S327.46,147.84,305.12,150Z"/><path class="cls-9" d="M192,150c4.68.45,8.45-9-6.27-14.71S169.66,147.84,192,150Z"/><path class="cls-10" d="M193.29,54.21S253,92,311.57,77.11c0,0,0,31,24.3,36.5L348,107.08s7.77-28.46-9.5-55.85c0,0,9.53,14.88,15.48,11.31s-7.14-48.83-68.48-50c0,0,7.35-4.17-11.21-10.12s-57.43-1.23-73,18.46c0,0-17.88-15.48-26.4-10.72s14.71,13.13,14.71,13.13-18.46-.62-20.25,4.14,13.1,6,13.1,6-46.29,17.69-35.65,73.46l13.08,6.78s2.32,16,8.87,15.45S167,98.87,167,98.87,183.87,83.39,193.29,54.21Z"/><path class="cls-11" d="M186.68,108.07s7.25-15.4,21.22-5L211,94.7S193.93,84,181.33,103.17Z"/><path class="cls-11" d="M301.35,108.07s-7.24-15.4-21.22-5L277,94.7s17.09-10.72,29.69,8.47Z"/><rect class="cls-10" x="144.81" y="202.82" width="96.46" height="140.37" rx="7.94" ry="7.94"/><rect class="cls-12" x="141.5" y="202.82" width="96.46" height="140.37" rx="7.94" ry="7.94"/><path class="cls-13" d="M196.05,182.75H183.82a1.92,1.92,0,0,0-1.86,1.46,1.94,1.94,0,0,0-.06.46v21.6a1.92,1.92,0,0,0,1.92,1.92h12.24a1.92,1.92,0,0,0,1.92-1.92v-21.6A1.92,1.92,0,0,0,196.05,182.75Zm-6.12,9.67a3.25,3.25,0,1,1,3.25-3.25A3.25,3.25,0,0,1,189.93,192.42Z"/><path class="cls-14" d="M204.48,197.48a2.37,2.37,0,0,1-2.37,2.37H177.75a2.36,2.36,0,0,1-2.36-2.37h0a2.37,2.37,0,0,1,2.36-2.37h24.36a2.37,2.37,0,0,1,2.37,2.37Z"/><rect class="cls-13" x="133.85" y="232.58" width="113.41" height="80.18" transform="translate(-84.98 459.08) rotate(-89.13)"/><polygon class="cls-2" points="225.92 324.99 154.01 329.32 147.2 216.12 227.24 211.3 233.61 317.23 225.92 324.99"/><polygon class="cls-15" points="233.61 317.23 225.79 316.51 225.92 324.99 233.61 317.23"/><path class="cls-13" d="M176,210.83c5.23-13.06,19.31-9.59,31-7.74v-2.32a2.58,2.58,0,0,0-2.58-2.58h-29a2.58,2.58,0,0,0-2.58,2.58v16.44a2.57,2.57,0,0,0,2,2.49A21.58,21.58,0,0,1,176,210.83Z"/><path class="cls-14" d="M176,210.83a21.58,21.58,0,0,0-1.18,8.88,2.55,2.55,0,0,0,.62.09h29a2.58,2.58,0,0,0,2.58-2.58V203.1C195.29,201.24,181.21,197.77,176,210.83Z"/><path class="cls-8" d="M125.13,259.35c-4.42,7.71-3.56,35.11,18.46,38.45s5.07-12.64,5.07-12.64S165,287.51,165,277.31s-12.48-5.3-12.48-5.3,11.27-5.25,8.8-11.49-11.15-.21-11.15-.21,12.3-12.46,3.91-14.86S133.21,245.26,125.13,259.35Z"/><path class="cls-16" d="M328.08,220.31V201.92a1.47,1.47,0,0,1,1.47-1.47h2.07c1.16,0,2.14-1.27,2.14-2.77s-1-2.77-2.14-2.77H308.51c-1.16,0-2.14,1.27-2.14,2.77s1,2.77,2.14,2.77h2.71a1.48,1.48,0,0,1,1.48,1.47v18.44C317.82,220.31,322.94,220.26,328.08,220.31Z"/><path class="cls-17" d="M312.69,220.36v82c0,3.3,3.45,6,7.69,6s7.69-2.68,7.69-6v-82C322.94,220.26,317.82,220.31,312.69,220.36Z"/><path class="cls-2" d="M331.63,191.95H308.51c-2.8,0-5.09,2.57-5.09,5.72s2.29,5.72,5.09,5.72h1.23v99c0,4.93,4.77,8.93,10.64,8.93s10.64-4,10.64-8.93v-99h.6c2.81,0,5.09-2.57,5.09-5.72S334.43,191.95,331.63,191.95Zm0,8.5h-2.07a1.47,1.47,0,0,0-1.47,1.47V302.36c0,3.3-3.45,6-7.69,6s-7.69-2.68-7.69-6V201.92a1.48,1.48,0,0,0-1.48-1.47h-2.71c-1.16,0-2.14-1.27-2.14-2.77s1-2.77,2.14-2.77h23.12c1.16,0,2.14,1.27,2.14,2.77S332.79,200.45,331.63,200.45Z"/><path class="cls-18" d="M325.23,300a2.42,2.42,0,0,1-2.43,2.42h0a2.42,2.42,0,0,1-2.42-2.42V205a2.42,2.42,0,0,1,2.42-2.42h0a2.42,2.42,0,0,1,2.43,2.42Z"/><path class="cls-8" d="M347,244.28c4.43,7.71,3.56,35.11-18.46,38.45s-5.06-12.64-5.06-12.64-16.37,2.35-16.37-7.86,12.48-5.3,12.48-5.3-11.27-5.25-8.8-11.49,11.15-2.73,11.15-2.73-12.3-9.94-3.91-12.35S338.88,230.2,347,244.28Z"/></g></g></g></svg>