<svg xmlns="http://www.w3.org/2000/svg" viewBox="0 0 216.97 58.42"><defs><style>.cls-1{fill:#fbbc05;}.cls-2{fill:#fff;}.cls-3{fill:#ffe197;}</style></defs><title>logo</title><g id="Layer_2" data-name="Layer 2"><g id="Layer_1-2" data-name="Layer 1"><circle class="cls-1" cx="164.56" cy="3.41" r="3.41"/><path class="cls-2" d="M177.87,55.55c0,1.67-1.54,2.88-3.65,2.88H144.88c-2.12,0-3.65-1.21-3.65-2.88a4.94,4.94,0,0,1,.77-2.71L153.08,20V15.46c-1.09-1.11-1.48-1.84-1.27-2.36a.89.89,0,0,1,.93-.49h.13a2.68,2.68,0,0,1,.55,0,5.88,5.88,0,0,1,.77.06h10.52a5.94,5.94,0,0,1,.77-.06,2.71,2.71,0,0,1,.56,0h.13c.63,0,.85.31.93.49.22.52-.18,1.25-1.27,2.36V20l-.49,12.68.94,1.61,10.82,18.57A4.93,4.93,0,0,1,177.87,55.55Z"/><path class="cls-3" d="M156.94,41a34.59,34.59,0,0,1,7.74-1.38c3.87,0,5.45,2.3,5.45,2.3s-5.28,3-5.63,2.53S155.5,46,156.94,41Z"/><path class="cls-2" d="M177.11,52.83,165.84,20V15.46c1.09-1.11,1.48-1.84,1.27-2.36-.08-.18-.3-.49-.93-.49H166a2.71,2.71,0,0,0-.56,0,5.94,5.94,0,0,0-.77.06H154.2a5.88,5.88,0,0,0-.77-.06,2.68,2.68,0,0,0-.55,0h-.13a.89.89,0,0,0-.93.49c-.21.52.18,1.25,1.27,2.36V20L142,52.83a4.94,4.94,0,0,0-.77,2.71c0,1.67,1.54,2.88,3.65,2.88h29.34c2.12,0,3.65-1.21,3.65-2.88A4.93,4.93,0,0,0,177.11,52.83Zm-2.89,4.84H144.88c-1.4,0-2.91-.67-2.91-2.13a4.23,4.23,0,0,1,.63-2.29l12.1-20.77-.88-17.34-.11-.11c-1.26-1.26-1.22-1.65-1.22-1.65a.47.47,0,0,1,.25,0h.18l.07,0a1.89,1.89,0,0,1,.44,0,4.89,4.89,0,0,1,.69.05H164.8a4.82,4.82,0,0,1,.69-.05,1.89,1.89,0,0,1,.44,0l.07,0h.18a1.29,1.29,0,0,1,.24,0s.07.38-1.21,1.66l-.11.11-.7,17.34,12.08,20.73,0,0a4.17,4.17,0,0,1,.64,2.29C177.13,57,175.62,57.68,174.22,57.68Z"/><path class="cls-1" d="M149,41.26l-4.56,9.94a6.48,6.48,0,0,0-.42,3.38c.38,1.43.63,2.33,4,2.33h24.34A2.63,2.63,0,0,0,175,54.7c.42-2.3-.25-3.41-1.59-6.15s-3.33-6.6-3.33-6.6-4,2.1-5.8,2.07-5.45-2.29-7-3S149.65,40.29,149,41.26Z"/><circle class="cls-1" cx="160.29" cy="9.54" r="1.65"/><path class="cls-2" d="M131.56,58.21h-24.5V17.08h9.26V50.69h15.23Z"/><path class="cls-2" d="M186.08,58.21V17.08h15q6.88,0,10.58,2.52a8.12,8.12,0,0,1,3.7,7.11,8.42,8.42,0,0,1-2.25,5.82A11.83,11.83,0,0,1,207.34,36v.11a11.4,11.4,0,0,1,7,3.24A9.06,9.06,0,0,1,217,45.93a11,11,0,0,1-4,9q-4,3.31-11,3.31Zm9.26-34.31v9.75h4.07a6.79,6.79,0,0,0,4.52-1.39,4.74,4.74,0,0,0,1.65-3.83q0-4.53-6.77-4.53Zm0,16.64V51.38h5a7.73,7.73,0,0,0,5-1.49,5,5,0,0,0,1.82-4.07,4.65,4.65,0,0,0-1.79-3.87,7.93,7.93,0,0,0-5-1.41Z"/><path d="M37.5,48.05,26,15.77H15L0,57H10.06L13,47.82H27.63L30.56,57h5.33a5.61,5.61,0,0,1,1.61-8.94ZM15,40.69l4.49-14a15.74,15.74,0,0,0,.72-3.59h.23a17.9,17.9,0,0,0,.69,3.71L25.5,40.69Z"/><path d="M99.77,57H90.6V32.33q0-4,.34-8.83h-.23A43.46,43.46,0,0,1,89.42,29L79.76,57H72.17L62.34,29.25A53.83,53.83,0,0,1,61,23.5h-.26q.37,6.09.37,10.69V57H52.8V15.77h13.6L74.82,40.2a34.43,34.43,0,0,1,1.47,5.89h.17a59.36,59.36,0,0,1,1.64-6l8.42-24.38H99.77Z"/><path class="cls-2" d="M47.3,57.17c-.46-.46-.9-.92-1.53-1.6A6.69,6.69,0,0,1,41,57.44c-3.17,0-5-2.13-5-4.58a5.36,5.36,0,0,1,3.2-4.77V48a5.61,5.61,0,0,1-1.36-3.42,4,4,0,0,1,4.14-4A3.4,3.4,0,0,1,45.58,44c0,1.72-1,3.08-3.58,4.36v.07c1.38,1.6,2.93,3.39,4,4.55a12,12,0,0,0,1.57-4.77h1.94a12.41,12.41,0,0,1-2.35,6c.87.92,1.72,1.84,2.69,2.88Zm-2.57-2.81c-1-1.07-2.79-3.05-4.6-5.13A4,4,0,0,0,38,52.55a3.22,3.22,0,0,0,3.34,3.29A4.56,4.56,0,0,0,44.73,54.36Zm-5-10A4.58,4.58,0,0,0,41,47.34c1.65-.94,2.71-1.82,2.71-3.2A1.92,1.92,0,0,0,41.82,42,2.13,2.13,0,0,0,39.77,44.41Z"/></g></g></svg>