<svg xmlns="http://www.w3.org/2000/svg" viewBox="0 0 199.01 211"><defs><style>.cls-1{fill:#d1d3d4;}.cls-2{fill:none;}.cls-3{fill:#2b3451;}.cls-4{fill:#808285;}.cls-17,.cls-5{opacity:0.1;}.cls-6{fill:#fff;}.cls-7{fill:#bcbec0;}.cls-8{fill:#f16672;}.cls-9{fill:#f1f2f2;}.cls-10{fill:#e7e6e6;}.cls-11{fill:#f1f1f1;}.cls-12,.cls-17,.cls-18{fill:#231f20;}.cls-13{fill:#d1d2d3;}.cls-14{fill:#bcbdbf;}.cls-15{fill:#54bbd3;}.cls-16{fill:#424143;}.cls-18,.cls-33{opacity:0.2;}.cls-19{fill:#07162c;}.cls-20{fill:#ffe373;}.cls-21{fill:#1a243d;}.cls-22{fill:#efefef;}.cls-23{fill:#fdb92e;}.cls-24{fill:#2f6db5;}.cls-25{fill:#6ebd46;}.cls-26{fill:#f5eb22;}.cls-27{fill:#ed2836;}.cls-28{fill:#72cff5;}.cls-29{fill:#9b70af;}.cls-30{fill:#da8e27;}.cls-31{fill:#e6e7e8;}.cls-32{fill:#77452c;}</style></defs><title>webdesign</title><g id="Layer_2" data-name="Layer 2"><g id="Layer_1-2" data-name="Layer 1"><g id="Graphic_Design" data-name="Graphic Design"><rect class="cls-1" x="94.61" y="111.65" width="30.27" height="19.57"/><rect class="cls-1" x="34.87" y="3.7" width="149.75" height="111.69" rx="3.92" ry="3.92"/><rect class="cls-2" x="34.87" y="3.7" width="149.75" height="111.69" rx="3.92" ry="3.92"/><path class="cls-3" d="M180.7,3.7H38.79a3.93,3.93,0,0,0-3.92,3.92V96.12l149.75-.22V7.63A3.93,3.93,0,0,0,180.7,3.7Z"/><rect class="cls-4" x="39.8" y="8.85" width="139.88" height="81.52"/><rect class="cls-1" x="88.55" y="129.33" width="42.4" height="7.24"/><rect class="cls-5" x="94.61" y="115.8" width="30.27" height="4.72"/><rect class="cls-6" x="51.2" y="22.55" width="97.41" height="64.54"/><rect class="cls-7" x="39.8" y="8.85" width="139.88" height="9.5"/><rect class="cls-1" x="39.8" y="18.36" width="7.79" height="55.43"/><rect class="cls-1" x="153.18" y="18.36" width="26.51" height="72.02"/><rect class="cls-4" x="40.4" y="19.92" width="2.63" height="2.63"/><rect class="cls-4" x="44.24" y="19.92" width="2.63" height="2.63"/><rect class="cls-4" x="40.4" y="24.52" width="2.63" height="2.63"/><rect class="cls-4" x="44.24" y="24.52" width="2.63" height="2.63"/><rect class="cls-4" x="40.4" y="29.12" width="2.63" height="2.63"/><rect class="cls-4" x="44.24" y="29.12" width="2.63" height="2.63"/><rect class="cls-4" x="40.4" y="33.73" width="2.63" height="2.63"/><rect class="cls-4" x="44.24" y="33.73" width="2.63" height="2.63"/><rect class="cls-4" x="40.4" y="38.33" width="2.63" height="2.63"/><rect class="cls-4" x="44.24" y="38.33" width="2.63" height="2.63"/><rect class="cls-4" x="40.4" y="42.93" width="2.63" height="2.63"/><rect class="cls-4" x="44.24" y="42.93" width="2.63" height="2.63"/><rect class="cls-4" x="40.4" y="47.53" width="2.63" height="2.63"/><rect class="cls-4" x="44.24" y="47.53" width="2.63" height="2.63"/><rect class="cls-4" x="40.4" y="52.14" width="2.63" height="2.63"/><rect class="cls-4" x="44.24" y="52.14" width="2.63" height="2.63"/><rect class="cls-4" x="40.4" y="56.74" width="2.63" height="2.63"/><rect class="cls-4" x="44.24" y="56.74" width="2.63" height="2.63"/><rect class="cls-4" x="40.4" y="61.34" width="2.63" height="2.63"/><rect class="cls-4" x="44.24" y="61.34" width="2.63" height="2.63"/><rect class="cls-4" x="41.28" y="10.24" width="5.92" height="5.92"/><rect class="cls-7" x="156.06" y="21.04" width="21.04" height="15.67"/><rect class="cls-7" x="156.06" y="40.33" width="21.04" height="15.67"/><rect class="cls-7" x="156.06" y="59.91" width="21.04" height="15.67"/><path class="cls-8" d="M93.08,56.08H81.87l-2,4.57a7,7,0,0,0-.74,2.52,1.47,1.47,0,0,0,.64,1.17,5.47,5.47,0,0,0,2.74.64v.8H73.4V65a5,5,0,0,0,2.34-.82A13.33,13.33,0,0,0,78.15,60L88.35,36.1h.77L99.22,60.25A10.74,10.74,0,0,0,101.41,64a4.54,4.54,0,0,0,2.78,1v.8H92.74V65a4.25,4.25,0,0,0,2.35-.57,1.51,1.51,0,0,0,.6-1.21,8.81,8.81,0,0,0-.85-2.95Zm-.58-1.59L87.58,42.77l-5,11.72Z"/><path class="cls-8" d="M117.15,63a33.81,33.81,0,0,1-3.77,2.68,5.91,5.91,0,0,1-2.47.53,4.4,4.4,0,0,1-3.33-1.38,5.1,5.1,0,0,1-1.32-3.67,4.62,4.62,0,0,1,.64-2.47,8.41,8.41,0,0,1,3-2.74,48.79,48.79,0,0,1,7.21-3.13V52q0-2.92-.93-4a3.37,3.37,0,0,0-2.71-1.09,3.06,3.06,0,0,0-2.12.72,2.22,2.22,0,0,0-.82,1.67l.05,1.25a2.11,2.11,0,0,1-.5,1.51,1.71,1.71,0,0,1-1.3.53,1.67,1.67,0,0,1-1.3-.56,2.17,2.17,0,0,1-.5-1.51,4.37,4.37,0,0,1,1.89-3.38,8.15,8.15,0,0,1,5.29-1.54,9.17,9.17,0,0,1,4.28.88,4.11,4.11,0,0,1,1.86,2.07,12.18,12.18,0,0,1,.37,3.77V59a30.53,30.53,0,0,0,.11,3.43,1.4,1.4,0,0,0,.36.85.86.86,0,0,0,.57.21,1,1,0,0,0,.58-.16,12.79,12.79,0,0,0,1.75-1.54V63q-2.42,3.19-4.6,3.19a2.09,2.09,0,0,1-1.66-.72A3.88,3.88,0,0,1,117.15,63Zm0-1.41V54.08q-3.21,1.3-4.17,1.83a7.12,7.12,0,0,0-2.4,2,3.8,3.8,0,0,0-.73,2.23,3.7,3.7,0,0,0,.92,2.56,2.77,2.77,0,0,0,2.11,1Q114.49,63.7,117.15,61.55Z"/><rect class="cls-9" x="70.4" y="149.33" width="76.57" height="29.47" rx="1.48" ry="1.48"/><rect class="cls-7" x="72.38" y="151.55" width="72.62" height="25.03"/><rect class="cls-6" x="73.4" y="152.56" width="4.01" height="4.01"/><rect class="cls-6" x="80.04" y="152.56" width="4.01" height="4.01"/><rect class="cls-6" x="86.69" y="152.56" width="4.01" height="4.01"/><rect class="cls-6" x="93.34" y="152.56" width="4.01" height="4.01"/><rect class="cls-6" x="99.99" y="152.56" width="4.01" height="4.01"/><rect class="cls-6" x="106.64" y="152.56" width="4.01" height="4.01"/><rect class="cls-6" x="113.29" y="152.56" width="4.01" height="4.01"/><rect class="cls-6" x="119.93" y="152.56" width="4.01" height="4.01"/><rect class="cls-6" x="126.58" y="152.56" width="4.01" height="4.01"/><rect class="cls-6" x="133.23" y="152.56" width="4.01" height="4.01"/><rect class="cls-6" x="139.88" y="152.56" width="4.01" height="4.01"/><rect class="cls-6" x="73.41" y="158.89" width="4.01" height="4.01"/><rect class="cls-6" x="80.06" y="158.89" width="4.01" height="4.01"/><rect class="cls-6" x="86.71" y="158.89" width="4.01" height="4.01"/><rect class="cls-6" x="93.36" y="158.89" width="4.01" height="4.01"/><rect class="cls-6" x="100.01" y="158.89" width="4.01" height="4.01"/><rect class="cls-6" x="106.65" y="158.89" width="4.01" height="4.01"/><rect class="cls-6" x="113.3" y="158.89" width="4.01" height="4.01"/><rect class="cls-6" x="119.95" y="158.89" width="4.01" height="4.01"/><rect class="cls-6" x="126.6" y="158.89" width="4.01" height="4.01"/><rect class="cls-6" x="133.25" y="158.89" width="4.01" height="4.01"/><rect class="cls-6" x="139.89" y="158.89" width="4.01" height="4.01"/><rect class="cls-6" x="73.43" y="165.23" width="4.01" height="4.01"/><rect class="cls-6" x="80.08" y="165.23" width="4.01" height="4.01"/><rect class="cls-6" x="86.73" y="165.23" width="4.01" height="4.01"/><rect class="cls-6" x="93.37" y="165.23" width="4.01" height="4.01"/><rect class="cls-6" x="100.02" y="165.23" width="4.01" height="4.01"/><rect class="cls-6" x="106.67" y="165.23" width="4.01" height="4.01"/><rect class="cls-6" x="113.32" y="165.23" width="4.01" height="4.01"/><rect class="cls-6" x="119.97" y="165.23" width="4.01" height="4.01"/><rect class="cls-6" x="133.26" y="165.23" width="4.01" height="4.01"/><rect class="cls-6" x="73.45" y="171.56" width="4.01" height="4.01"/><rect class="cls-6" x="80.09" y="171.56" width="4.01" height="4.01"/><polygon class="cls-6" points="106.69 171.56 106.64 171.63 106.64 171.56 100.04 171.56 93.39 171.56 86.74 171.56 86.74 175.56 93.39 175.56 100.04 175.56 103.92 175.56 106.64 175.56 110.69 175.56 110.69 171.56 106.69 171.56"/><rect class="cls-6" x="113.34" y="171.56" width="4.01" height="4.01"/><rect class="cls-6" x="119.98" y="171.56" width="4.01" height="4.01"/><rect class="cls-6" x="126.63" y="171.56" width="4.01" height="4.01"/><rect class="cls-6" x="133.28" y="171.56" width="4.01" height="4.01"/><rect class="cls-6" x="139.93" y="171.56" width="4.01" height="4.01"/><rect class="cls-3" y="158.17" width="51.39" height="36.42" rx="1.37" ry="1.37"/><rect class="cls-10" x="1.14" y="165.29" width="49.12" height="25.32"/><rect class="cls-11" x="43.51" y="161.17" width="4.24" height="1.44"/><rect class="cls-11" x="38.35" y="161.17" width="4.24" height="1.44"/><g id="Pen"><rect class="cls-12" x="40.12" y="182.65" width="0.24" height="0.18" transform="translate(-117.44 81.99) rotate(-45)"/><rect class="cls-13" x="37.63" y="167.67" width="32.01" height="3.36" transform="translate(-104.03 87.51) rotate(-44.99)"/><rect class="cls-14" x="64.89" y="156.77" width="0.43" height="2.21" transform="translate(-92.56 92.25) rotate(-44.99)"/><rect class="cls-15" x="63.15" y="157.52" width="1.27" height="3.36" transform="translate(-93.88 91.71) rotate(-44.99)"/><polygon class="cls-16" points="40.45 182.78 43.51 181.85 41.13 179.48 40.21 182.54 40.45 182.78"/><rect class="cls-12" x="40.24" y="173.96" width="14.23" height="3.36" transform="translate(-110.34 84.94) rotate(-45.01)"/><rect class="cls-16" x="42.37" y="176.15" width="3.74" height="0.18" transform="translate(-111.66 82.9) rotate(-45)"/></g><path class="cls-1" d="M175.94,149.06h-5.81a3.56,3.56,0,0,0-3.55,3.54v15.74a3.56,3.56,0,0,0,3.55,3.54h5.81a3.56,3.56,0,0,0,3.55-3.54V152.61A3.56,3.56,0,0,0,175.94,149.06Z"/><path class="cls-17" d="M175.94,149.06h-5.81a3.56,3.56,0,0,0-3.55,3.54v5.91h12.91v-5.91A3.56,3.56,0,0,0,175.94,149.06Z"/><path class="cls-6" d="M173.65,156.56a.63.63,0,1,1-1.24,0V154.5a.63.63,0,1,1,1.24,0Z"/><path class="cls-18" d="M179.48,158.52v-5.91a3.56,3.56,0,0,0-3.55-3.54H173v9.45Z"/><rect class="cls-19" x="121.03" y="205.48" width="11.58" height="5.52"/><path class="cls-20" d="M136,181.4a1.42,1.42,0,1,0-2.84,0h0v3.86h-1.41v-6.19h0a1.42,1.42,0,0,0-2.84,0h0v6.19h-1.41v-8.34h0a1.42,1.42,0,0,0-2.84,0h0v8.34h-1.38V173h0s0,0,0,0a1.42,1.42,0,1,0-2.84,0s0,0,0,0h0v19.78l-2-.93v-3.76c3.34-2.88.82-4.66.82-4.66l-4,3.08v11.17l5.74,7.79h11.58l3.39-7.36V181.4Z"/><rect class="cls-19" x="83.77" y="193.5" width="11.58" height="5.52"/><path class="cls-20" d="M80.38,169.42a1.42,1.42,0,1,1,2.84,0h0v3.86h1.41V167.1h0a1.42,1.42,0,0,1,2.84,0h0v6.19h1.41v-8.35h0a1.42,1.42,0,1,1,2.84,0h0v8.35h1.38V161h0s0,0,0,0a1.42,1.42,0,0,1,2.84,0s0,0,0,0h0v19.78l2-.93v-3.76c-3.34-2.88-.81-4.66-.81-4.66l4,3.08v11.17l-5.74,7.79H83.77l-3.39-7.36V169.42Z"/><rect class="cls-21" x="20.42" y="137.91" width="7.42" height="1.86"/><rect class="cls-5" x="20.42" y="138.83" width="7.42" height="0.93"/><circle class="cls-3" cx="37.77" cy="139.95" r="10.62"/><circle class="cls-6" cx="37.77" cy="139.95" r="8.87"/><g class="cls-5"><path d="M45.28,132.44l-15,15a10.62,10.62,0,1,0,15-15Z"/></g><circle class="cls-3" cx="10.71" cy="139.95" r="10.62"/><circle class="cls-6" cx="10.71" cy="139.95" r="8.87"/><g class="cls-5"><path d="M18.22,132.44l-15,15a10.62,10.62,0,0,0,15-15Z"/></g><polygon class="cls-22" points="10.25 65.78 1.14 74.88 1.14 123.84 44.37 123.84 44.37 65.78 10.25 65.78"/><polygon class="cls-5" points="10.25 65.78 1.14 74.88 10.25 74.88 10.25 65.78"/><path class="cls-23" d="M25.52,110.25h-3.7l-7.7-12,7.7-22.18H23.5V89.68a1.31,1.31,0,1,0,.36,0V76.05h1.67l7.7,22.18Z"/><rect class="cls-24" x="16.9" y="106.25" width="13.56" height="4.72"/><polygon class="cls-17" points="25.52 76.06 33.22 98.23 28.16 106.14 24.24 106.14 29.91 97.67 24.94 76.06 25.52 76.06"/><rect class="cls-17" x="24.24" y="106.14" width="6.21" height="4.72"/><path class="cls-6" d="M195.32,21.37c-6.9-.8-14.87,11.95-19.79,2.51-3-5.74,7.71-8.51,10.26-13.57C190.41,1.15,179.34,0,177.73,0a22.55,22.55,0,1,0,20,33C199.52,28.73,200,21.91,195.32,21.37Z"/><circle class="cls-25" cx="174.23" cy="5.95" r="3.71"/><path class="cls-5" d="M176.09,2.74a3.71,3.71,0,0,1-4.42,5.89,3.71,3.71,0,1,0,4.42-5.89Z"/><circle class="cls-26" cx="162.75" cy="15.88" r="3.71"/><path class="cls-5" d="M164.61,12.67a3.71,3.71,0,0,1-4.42,5.89,3.71,3.71,0,1,0,4.42-5.89Z"/><circle class="cls-27" cx="162.75" cy="30.13" r="3.71"/><path class="cls-5" d="M164.61,26.91a3.71,3.71,0,0,1-4.42,5.89,3.71,3.71,0,1,0,4.42-5.89Z"/><circle class="cls-28" cx="176.34" cy="39.86" r="3.71"/><path class="cls-5" d="M178.19,36.65a3.71,3.71,0,0,1-4.42,5.89,3.71,3.71,0,1,0,4.42-5.89Z"/><circle class="cls-29" cx="191.07" cy="32.07" r="3.71"/><path class="cls-5" d="M192.93,28.86a3.71,3.71,0,0,1-4.42,5.89,3.71,3.71,0,1,0,4.42-5.89Z"/><path d="M187,19.77c5.62-6,10-11.15,9.84-11.36L196,7.65c-.21-.21-5.32,4.22-11.36,9.84l0,0c-6,5.62-10.64,10.56-10.22,11L176,30c.42.42,5.36-4.18,11-10.22Z"/><path d="M176.72,27.72a2.71,2.71,0,0,0-3.83,0l1.89,1.89,1.89,1.89A2.71,2.71,0,0,0,176.72,27.72Z"/><path class="cls-30" d="M172.93,27.8a6.63,6.63,0,0,0-4.2,8,5.43,5.43,0,0,1,3-.89c4.2.06,5-3.31,5-3.31Z"/><circle class="cls-31" cx="150.83" cy="132.95" r="11.89"/><circle class="cls-32" cx="150.83" cy="132.95" r="9.51"/><g class="cls-33"><path class="cls-12" d="M157.91,126.61a9.51,9.51,0,0,1-15.39,11,9.51,9.51,0,1,0,15.39-11Z"/></g><rect class="cls-31" x="160.99" y="131.39" width="6.44" height="3.13"/></g></g></g></svg>