<svg xmlns="http://www.w3.org/2000/svg" viewBox="0 0 219.06 195.11"><defs><style>
@-webkit-keyframes rotation {
		from {
				-webkit-transform: rotate(0deg);
		}
		to {
				-webkit-transform: rotate(359deg);
		}
}
.rotate{-webkit-animation: rotation 2.5s infinite linear;transform-origin: 90% 35%;}
	.cls-1{fill:#f1f2f2;}.cls-2{fill:#d1d3d4;}.cls-3{fill:#fff;}.cls-4{fill:#07162c;}.cls-5{fill:#ffe373;}.cls-6{fill:#0f142b;}.cls-7{fill:#ffc54e;}.cls-22,.cls-8{fill:#231f20;}.cls-14,.cls-8{opacity:0.1;}.cls-9{fill:#aadfed;}.cls-10{fill:#faf071;}.cls-11{fill:#ee1e3b;}.cls-12{fill:#4993cf;}.cls-13{fill:#e6e7e8;}.cls-15{fill:#716558;}.cls-16{fill:#9a8379;}.cls-17{fill:#69c8f2;}.cls-18{fill:#ef3a50;}.cls-19{fill:#7ac9ac;}.cls-20{fill:#f58120;}.cls-21{fill:#2bb673;}.cls-22{opacity:0.2;}</style></defs><title>webdev</title><g id="Layer_2" data-name="Layer 2"><g id="Layer_1-2" data-name="Layer 1"><g id="Coding"><rect class="cls-1" x="36.16" y="133.69" width="76.26" height="29.35" rx="1.48" ry="1.48"/><rect class="cls-2" x="38.13" y="135.9" width="72.32" height="24.93"/><rect class="cls-3" x="39.14" y="136.91" width="3.99" height="3.99"/><rect class="cls-3" x="45.76" y="136.91" width="3.99" height="3.99"/><rect class="cls-3" x="52.39" y="136.91" width="3.99" height="3.99"/><rect class="cls-3" x="59.01" y="136.91" width="3.99" height="3.99"/><rect class="cls-3" x="65.63" y="136.91" width="3.99" height="3.99"/><rect class="cls-3" x="72.25" y="136.91" width="3.99" height="3.99"/><rect class="cls-3" x="78.87" y="136.91" width="3.99" height="3.99"/><rect class="cls-3" x="85.49" y="136.91" width="3.99" height="3.99"/><rect class="cls-3" x="92.11" y="136.91" width="3.99" height="3.99"/><rect class="cls-3" x="98.73" y="136.91" width="3.99" height="3.99"/><rect class="cls-3" x="105.36" y="136.91" width="3.99" height="3.99"/><rect class="cls-3" x="39.16" y="143.21" width="3.99" height="3.99"/><rect class="cls-3" x="45.78" y="143.21" width="3.99" height="3.99"/><rect class="cls-3" x="52.4" y="143.21" width="3.99" height="3.99"/><rect class="cls-3" x="59.02" y="143.21" width="3.99" height="3.99"/><rect class="cls-3" x="65.64" y="143.21" width="3.99" height="3.99"/><rect class="cls-3" x="72.27" y="143.21" width="3.99" height="3.99"/><rect class="cls-3" x="78.89" y="143.21" width="3.99" height="3.99"/><rect class="cls-3" x="85.51" y="143.21" width="3.99" height="3.99"/><rect class="cls-3" x="92.13" y="143.21" width="3.99" height="3.99"/><rect class="cls-3" x="98.75" y="143.21" width="3.99" height="3.99"/><rect class="cls-3" x="105.37" y="143.21" width="3.99" height="3.99"/><rect class="cls-3" x="39.18" y="149.52" width="3.99" height="3.99"/><rect class="cls-3" x="45.8" y="149.52" width="3.99" height="3.99"/><rect class="cls-3" x="52.42" y="149.52" width="3.99" height="3.99"/><rect class="cls-3" x="59.04" y="149.52" width="3.99" height="3.99"/><rect class="cls-3" x="65.66" y="149.52" width="3.99" height="3.99"/><rect class="cls-3" x="72.28" y="149.52" width="3.99" height="3.99"/><rect class="cls-3" x="78.9" y="149.52" width="3.99" height="3.99"/><rect class="cls-3" x="85.53" y="149.52" width="3.99" height="3.99"/><rect class="cls-3" x="98.77" y="149.52" width="3.99" height="3.99"/><rect class="cls-3" x="39.19" y="155.82" width="3.99" height="3.99"/><rect class="cls-3" x="45.82" y="155.82" width="3.99" height="3.99"/><polygon class="cls-3" points="72.3 155.82 72.25 155.9 72.25 155.82 65.68 155.82 59.06 155.82 52.44 155.82 52.44 159.81 59.06 159.81 65.68 159.81 69.54 159.81 72.25 159.81 76.29 159.81 76.29 155.82 72.3 155.82"/><rect class="cls-3" x="78.92" y="155.82" width="3.99" height="3.99"/><rect class="cls-3" x="85.54" y="155.82" width="3.99" height="3.99"/><rect class="cls-3" x="92.16" y="155.82" width="3.99" height="3.99"/><rect class="cls-3" x="98.79" y="155.82" width="3.99" height="3.99"/><rect class="cls-3" x="105.41" y="155.82" width="3.99" height="3.99"/><rect class="cls-4" x="86.59" y="189.61" width="11.53" height="5.5"/><path class="cls-5" d="M101.49,165.63a1.41,1.41,0,1,0-2.82,0h0v3.84h-1.4v-6.16h0a1.41,1.41,0,1,0-2.82,0h0v6.16H93v-8.31h0a1.41,1.41,0,0,0-2.82,0h0v8.31H88.83v-12.2h0s0,0,0,0a1.41,1.41,0,1,0-2.82,0s0,0,0,0h0V177L84,176v-3.74c3.32-2.87.81-4.64.81-4.64l-3.95,3.06v11.13l5.72,7.75H98.11l3.37-7.33V165.63Z"/><rect class="cls-4" x="49.47" y="177.68" width="11.53" height="5.49"/><path class="cls-5" d="M46.1,153.7a1.41,1.41,0,0,1,2.82,0h0v3.84h1.4v-6.16h0a1.41,1.41,0,1,1,2.82,0h0v6.16h1.4v-8.31h0a1.41,1.41,0,1,1,2.82,0h0v8.31h1.37v-12.2h0s0,0,0,0a1.41,1.41,0,0,1,2.82,0s0,0,0,0h0V165l2-.93v-3.74c-3.32-2.87-.81-4.64-.81-4.64l3.95,3.06v11.13L61,177.68H49.47l-3.37-7.33V153.7Z"/>
<g class="rotate">
<path class="cls-6" d="M214.55,52.61,216.17,51,212,46.83l-1.77,1.77a13.11,13.11,0,0,0-3.67-1.44V44.66h-5.89v2.51A13.14,13.14,0,0,0,196.28,49l-1.73-1.73-4.16,4.16,1.84,1.84a13.16,13.16,0,0,0-1.51,3.79h-2.51V63h2.51a13.17,13.17,0,0,0,1.56,3.87L190,69.12l4.16,4.16,2.17-2.17A13.16,13.16,0,0,0,200.67,73v2.5h5.89V73a13.17,13.17,0,0,0,3.87-1.55l1.89,1.89,4.16-4.16-1.81-1.81A13.16,13.16,0,0,0,216.51,63h2.55V57.11h-2.55A13.15,13.15,0,0,0,214.55,52.61Zm-10.91,17a9.56,9.56,0,1,1,9.56-9.56A9.56,9.56,0,0,1,203.64,69.61Z"/><circle class="cls-6" cx="203.64" cy="60.06" r="6.95"/></g>
<path class="cls-6" d="M207.48,1.82C206.38.64,204.5,0,202.08,0h-.15c-2.42,0-4.26.64-5.35,1.81a3.81,3.81,0,0,0-1.06,2.6V18.67h2.68V4.32a1.28,1.28,0,0,1,.34-.67c.58-.62,1.82-1,3.49-1,3,0,3.8,1,3.83,1.65V18.67h2.68V4.42A3.81,3.81,0,0,0,207.48,1.82Z"/><path class="cls-7" d="M205.25,10.59a12.45,12.45,0,1,0,9.22,12A12.48,12.48,0,0,0,205.25,10.59ZM202,18.3a3,3,0,0,1,1.14,5.86v4.14h-2.28V24.17A3,3,0,0,1,202,18.3Z"/><path class="cls-8" d="M205.25,10.59a12.45,12.45,0,0,1-8.67,23.22,12.45,12.45,0,1,0,8.67-23.22Z"/><rect class="cls-3" x="136.27" y="112.9" width="74.44" height="52.01" rx="3.23" ry="3.23"/><path class="cls-2" d="M207.49,112.9h-68a3.24,3.24,0,0,0-3.23,3.23v3.75h74.44v-3.75A3.24,3.24,0,0,0,207.49,112.9Z"/><path class="cls-9" d="M154.65,143.66v-3l11.63-6.24v3.89l-8,3.82,8,3.86v3.89Z"/><path class="cls-9" d="M178.63,130.14l-7.15,24.08h-3.4l7.12-24.08Z"/><path class="cls-9" d="M180.42,149.9V146l8-3.86-8-3.82v-3.89l11.63,6.24v3Z"/><circle class="cls-10" cx="191.5" cy="116.42" r="2.1"/><circle class="cls-11" cx="197.41" cy="116.42" r="2.1"/><circle class="cls-12" cx="203.59" cy="116.42" r="2.1"/><rect class="cls-2" x="94.27" y="104.99" width="29.45" height="19.04"/><rect class="cls-2" x="36.16" width="145.66" height="108.63" rx="3.81" ry="3.81"/><path class="cls-6" d="M178,0H40a3.82,3.82,0,0,0-3.81,3.81V89.89l145.66-.21V3.81A3.82,3.82,0,0,0,178,0Z"/><rect class="cls-13" x="40.96" y="5.01" width="136.06" height="79.29"/><rect class="cls-2" x="88.37" y="122.2" width="41.24" height="7.04"/><rect class="cls-14" x="94.27" y="109.03" width="29.45" height="4.59"/><rect class="cls-3" x="40.96" y="5.01" width="136.06" height="8.88"/><circle class="cls-13" cx="160.4" cy="9.45" r="2.1"/><circle class="cls-13" cx="166.31" cy="9.45" r="2.1"/><circle class="cls-13" cx="172.49" cy="9.45" r="2.1"/><path class="cls-15" d="M87.39,31a.23.23,0,0,0,0-.05Z"/><polygon class="cls-16" points="96.52 46.48 94.85 46.16 94.85 46.16 96.52 46.48 96.52 46.48"/><rect class="cls-17" x="60.85" y="18.67" width="12.91" height="3.94"/><rect class="cls-17" x="80.94" y="28.11" width="12.91" height="3.94"/><rect class="cls-18" x="60.85" y="28.11" width="12.91" height="3.94"/><rect class="cls-17" x="60.85" y="37.55" width="12.91" height="3.94"/><rect class="cls-19" x="80.95" y="37.55" width="32.6" height="3.94"/><rect class="cls-19" x="100.52" y="46.99" width="32.6" height="3.94"/><rect class="cls-19" x="78.55" y="18.67" width="10.69" height="3.94"/><rect class="cls-19" x="87.2" y="56.43" width="32.6" height="3.94"/><rect class="cls-18" x="80.22" y="65.88" width="32.6" height="3.94"/><rect class="cls-18" x="119.81" y="65.04" width="16.3" height="3.94"/><rect class="cls-18" x="138.42" y="65.04" width="16.3" height="3.94"/><rect class="cls-19" x="119.81" y="75.46" width="32.6" height="3.94"/><rect class="cls-18" x="60.85" y="46.99" width="33" height="3.94"/><rect class="cls-17" x="60.85" y="56.43" width="20.1" height="3.94"/><rect class="cls-19" x="60.85" y="65.88" width="12.91" height="3.94"/><rect class="cls-17" x="60.85" y="75.32" width="52.7" height="3.94"/><rect class="cls-6" x="7.73" y="65.59" width="85.14" height="63.65" rx="2.96" ry="2.96"/><rect class="cls-3" x="12.34" y="69.74" width="75.92" height="49.63"/><path class="cls-20" d="M98.56,123.43H60.29v1.28h-20v-1.28H0v3.78a2,2,0,0,0,2,2H98.56a2,2,0,0,0,2-2v-3.78Z"/><rect class="cls-21" x="19.54" y="77.05" width="12.26" height="4.84"/><rect class="cls-21" x="19.54" y="88.88" width="12.26" height="10.19"/><rect class="cls-21" x="59.99" y="88.88" width="12.26" height="10.19"/><rect class="cls-21" x="35.06" y="77.05" width="12.26" height="4.84"/><rect class="cls-21" x="35.06" y="88.88" width="12.26" height="4.84"/><rect class="cls-21" x="60.57" y="106.06" width="12.26" height="4.84"/><rect class="cls-21" x="53.8" y="77.05" width="28.62" height="4.84"/><rect class="cls-21" x="65.53" y="81.89" width="1.17" height="6.99"/><rect class="cls-21" x="66.12" y="99.07" width="1.17" height="6.99"/><rect class="cls-21" x="25.09" y="81.89" width="1.17" height="6.99"/><rect class="cls-21" x="40.61" y="81.89" width="1.17" height="6.99"/><rect class="cls-21" x="47.04" y="78.89" width="6.99" height="1.17"/><rect class="cls-21" x="29.86" y="91.3" width="6.99" height="1.17"/><path class="cls-2" d="M126.76,134.45H121a3.54,3.54,0,0,0-3.53,3.53v15.68a3.54,3.54,0,0,0,3.53,3.53h5.79a3.54,3.54,0,0,0,3.53-3.53V138A3.54,3.54,0,0,0,126.76,134.45Z"/><path class="cls-8" d="M126.76,134.45H121a3.54,3.54,0,0,0-3.53,3.53v5.89h12.85V138A3.54,3.54,0,0,0,126.76,134.45Z"/><path class="cls-3" d="M124.48,141.91a.62.62,0,1,1-1.24,0v-2a.62.62,0,1,1,1.24,0Z"/><path class="cls-22" d="M130.29,143.86V138a3.54,3.54,0,0,0-3.53-3.53h-2.9v9.42Z"/></g></g></g></svg>